<svg id="Layer_1" data-name="Layer 1" xmlns="http://www.w3.org/2000/svg" viewBox="0 0 720.73 709.06"><defs><style>.cls-1{fill:#ffde17;stroke:#ec008c;stroke-miterlimit:10;stroke-width:7px;}</style></defs><path class="cls-1" d="M60.5,201.92H98.85A201.37,201.37,0,0,1,300.22,403.29v61A15.75,15.75,0,0,1,284.47,480h-50a174,174,0,0,1-174-174V201.92a0,0,0,0,1,0,0Z" transform="translate(551.97 444.37) rotate(133.43)"/><path class="cls-1" d="M96.13,320.21h38.36A201.37,201.37,0,0,1,335.85,521.58v61a15.75,15.75,0,0,1-15.75,15.75h-50a174,174,0,0,1-174-174V320.21a0,0,0,0,1,0,0Z" transform="translate(690.95 280.43) rotate(94.56)"/><path class="cls-1" d="M194.15,392H232.5A201.37,201.37,0,0,1,433.87,593.37v61a15.75,15.75,0,0,1-15.75,15.75h-50a174,174,0,0,1-174-174V392A0,0,0,0,1,194.15,392Z" transform="translate(588.06 -21.69) rotate(56.97)"/><path class="cls-1" d="M332.34,382.85h38.36A201.37,201.37,0,0,1,572.06,584.22v61a15.75,15.75,0,0,1-15.75,15.75h-50a174,174,0,0,1-174-174V382.85A0,0,0,0,1,332.34,382.85Z" transform="translate(142.65 -95.39) rotate(14.28)"/><path class="cls-1" d="M426.76,267.07h38.36A201.37,201.37,0,0,1,666.49,468.44v61a15.75,15.75,0,0,1-15.75,15.75h-50a174,174,0,0,1-174-174V267.07a0,0,0,0,1,0,0Z" transform="translate(-133.34 368.93) rotate(-33.48)"/><path class="cls-1" d="M419.3,153.14h38.36A201.37,201.37,0,0,1,659,354.51v61a15.75,15.75,0,0,1-15.75,15.75h-50a174,174,0,0,1-174-174V153.14a0,0,0,0,1,0,0Z" transform="translate(76.54 694.73) rotate(-69.48)"/><path class="cls-1" d="M360.12,73.88h38.36A201.37,201.37,0,0,1,599.85,275.25v61A15.75,15.75,0,0,1,584.1,352h-50a174,174,0,0,1-174-174V73.88a0,0,0,0,1,0,0Z" transform="translate(364.93 725.25) rotate(-101.26)"/><path class="cls-1" d="M284.09,38.29h38.36A201.37,201.37,0,0,1,523.82,239.66v61a15.75,15.75,0,0,1-15.75,15.75h-50a174,174,0,0,1-174-174V38.29A0,0,0,0,1,284.09,38.29Z" transform="translate(505.41 606.67) rotate(-126.99)"/><path class="cls-1" d="M202.25,37.57H240.6A201.37,201.37,0,0,1,442,238.94v61a15.75,15.75,0,0,1-15.75,15.75h-50a174,174,0,0,1-174-174V37.57a0,0,0,0,1,0,0Z" transform="translate(526.96 481.53) rotate(-152.63)"/><path class="cls-1" d="M127,68.15h38.36A201.37,201.37,0,0,1,366.76,269.52v61A15.75,15.75,0,0,1,351,346.23H301a174,174,0,0,1-174-174V68.15A0,0,0,0,1,127,68.15Z" transform="translate(481.37 428.35) rotate(-176.68)"/><path class="cls-1" d="M64.72,142.51h38.36A201.37,201.37,0,0,1,304.44,343.88v61a15.75,15.75,0,0,1-15.75,15.75h-50a174,174,0,0,1-174-174V142.51a0,0,0,0,1,0,0Z" transform="translate(476.44 449.36) rotate(153.15)"/><path class="cls-1" d="M62.2,280.27h38.36A201.37,201.37,0,0,1,301.93,481.64v61a15.75,15.75,0,0,1-15.75,15.75h-50a174,174,0,0,1-174-174V280.27A0,0,0,0,1,62.2,280.27Z" transform="translate(638.19 388.98) rotate(109.67)"/><path class="cls-1" d="M153.9,380h38.36A201.37,201.37,0,0,1,393.62,581.39v61a15.75,15.75,0,0,1-15.75,15.75h-50a174,174,0,0,1-174-174V380a0,0,0,0,1,0,0Z" transform="translate(640.59 61.02) rotate(66.5)"/><path class="cls-1" d="M281.58,394.32h38.36A201.37,201.37,0,0,1,521.3,595.69v61a15.75,15.75,0,0,1-15.75,15.75h-50a174,174,0,0,1-174-174V394.32a0,0,0,0,1,0,0Z" transform="translate(274.18 -121.95) rotate(25.98)"/><path class="cls-1" d="M389.31,319.35h38.36A201.37,201.37,0,0,1,629,520.72v61a15.75,15.75,0,0,1-15.75,15.75h-50a174,174,0,0,1-174-174V319.35a0,0,0,0,1,0,0Z" transform="translate(-102.43 149.64) rotate(-15.21)"/></svg>